<!-- Locally copied from deepseek-harness ic_ds icon source. -->
<svg xmlns="http://www.w3.org/2000/svg" width="14" height="14"  viewBox="0 0 14 14" fill="none">
    <path
      d="M2.15137 8.5L2.57617 8.07617L5.30273 5.34863C5.55843 5.09294 5.78438 4.86618 5.98828 4.70215C6.20088 4.53117 6.44405 4.38244 6.75 4.33398C6.91565 4.30778 7.08435 4.30778 7.25 4.33398C7.55595 4.38244 7.79912 4.53117 8.01172 4.70215C8.21561 4.86618 8.44157 5.09294 8.69727 5.34863L11.4238 8.07617L11.8486 8.5L11 9.34863L10.5762 8.92383L7.84863 6.19727C7.57405 5.92269 7.40124 5.75152 7.25977 5.6377C7.12709 5.53096 7.07728 5.52187 7.0625 5.51953C7.02105 5.51297 6.97895 5.51297 6.9375 5.51953C6.92272 5.52187 6.87291 5.53096 6.74023 5.6377C6.59876 5.75152 6.42595 5.92268 6.15137 6.19727L3.42383 8.92383L3 9.34863L2.15137 8.5Z"
      fill="currentColor"
    />
  </svg>
