<!-- Locally copied from deepseek-harness ic_ds icon source. -->
<svg xmlns="http://www.w3.org/2000/svg" width="16" height="16"  viewBox="0 0 16 16" fill="none">
    <path
      d="M8.27868 0.811572C8.81991 0.142194 9.79022 0.0421835 10.4538 0.557601L10.5823 0.669306L10.6066 0.693544L10.6097 0.695652L10.6392 0.725159C11.355 1.44679 11.6337 2.49468 11.3716 3.47669L11.3706 3.48091L11.3611 3.51674L11.3601 3.51885L10.889 5.22604C10.8796 5.25997 10.8707 5.29157 10.8627 5.32088C10.8934 5.32095 10.927 5.32194 10.9628 5.32194H11.9007C12.4264 5.32194 12.7831 5.319 13.0651 5.36725C14.8182 5.66719 15.9851 7.34568 15.6565 9.09357C15.6036 9.37487 15.477 9.7092 15.294 10.2022L14.3371 12.7798C14.1402 13.3104 13.9774 13.7518 13.8102 14.1024C13.6376 14.4645 13.4386 14.7793 13.1442 15.0424C12.9712 15.197 12.7802 15.3303 12.5751 15.4386C12.226 15.6231 11.8608 15.7 11.4612 15.7358C11.0743 15.7705 10.6035 15.7695 10.0375 15.7695H4.87377C4.08053 15.7695 3.42928 15.7702 2.90734 15.7137C2.37212 15.6557 1.88991 15.5311 1.46676 15.2237C1.22415 15.0474 1.01078 14.8339 0.834466 14.5914C0.527021 14.1682 0.401373 13.686 0.343384 13.1508C0.286822 12.6287 0.287531 11.9769 0.287531 11.1833V9.51405C0.287531 8.84778 0.281347 8.36714 0.399237 7.9565C0.671152 7.00935 1.41115 6.26832 2.35829 5.99638C2.76894 5.87849 3.24958 5.88573 3.91585 5.88573C4.11983 5.88573 4.14548 5.88319 4.16244 5.88046C4.23532 5.86863 4.30409 5.83663 4.35845 5.78667C4.3711 5.77504 4.38761 5.75604 4.51442 5.59488L8.25655 0.838972L8.2576 0.837918L8.27868 0.811572ZM1.69122 11.1833C1.69122 12.0082 1.69217 12.5711 1.73865 13.0001C1.78371 13.4157 1.86473 13.6221 1.96943 13.7662C2.0592 13.8898 2.16733 13.9989 2.29085 14.0887C2.43501 14.1934 2.64216 14.2744 3.05803 14.3195C3.45897 14.3629 3.97637 14.3656 4.7157 14.3659C4.30801 13.8053 4.06453 13.1171 4.06444 12.371V8.59406H5.46813V12.371C5.46838 13.4733 6.36166 14.3669 7.46407 14.3669H10.0375C10.6286 14.3669 11.0269 14.3663 11.3369 14.3385C11.6339 14.3118 11.7956 14.2638 11.9196 14.1983C12.0241 14.1431 12.1213 14.0747 12.2094 13.996C12.314 13.9025 12.4151 13.7678 12.5435 13.4986C12.6774 13.2176 12.8162 12.845 13.0219 12.2909L13.9788 9.71322C14.1848 9.15816 14.2531 8.96731 14.2781 8.83433C14.4618 7.85692 13.8093 6.91895 12.8291 6.75092C12.6957 6.7281 12.4928 6.72458 11.9007 6.72458H10.9628C10.7737 6.72458 10.5693 6.72657 10.4 6.70666C10.2211 6.68562 9.96702 6.63024 9.74771 6.43161C9.64454 6.33811 9.55957 6.2261 9.4969 6.10177C9.3639 5.83784 9.37799 5.57899 9.40521 5.40097C9.431 5.23261 9.48672 5.03616 9.53694 4.85404L10.008 3.14579L10.0175 3.11102C10.1488 2.61338 10.0078 2.08338 9.64654 1.71681L9.6086 1.67887L9.55064 1.64304C9.48795 1.62043 9.41425 1.63814 9.36938 1.69362L9.35779 1.70627L9.35884 1.70732L5.61672 6.46217C5.51822 6.58735 5.42237 6.7133 5.30689 6.81942C5.05075 7.05471 4.73126 7.20939 4.38796 7.26519C4.23315 7.29032 4.07513 7.28837 3.91585 7.28837C3.15356 7.28837 2.91916 7.2957 2.7461 7.34528C2.26364 7.48379 1.88564 7.86081 1.74708 8.34325C1.69738 8.51636 1.69122 8.7511 1.69122 9.51405V11.1833Z"
      fill="currentColor"
    />
  </svg>
