<!-- Locally copied from deepseek-harness ic_ds icon source. -->
<svg xmlns="http://www.w3.org/2000/svg" width="16" height="16"  viewBox="0 0 16 16" fill="none">
    <path
      d="M14.1446 8C14.1446 4.6062 11.3938 1.85539 8 1.85539C4.6062 1.85539 1.85539 4.6062 1.85539 8C1.85539 11.3938 4.6062 14.1446 8 14.1446C11.3938 14.1446 14.1446 11.3938 14.1446 8ZM15.511 8C15.511 12.148 12.148 15.511 8 15.511C3.85202 15.511 0.489014 12.148 0.489014 8C0.489014 3.85202 3.85202 0.489014 8 0.489014C12.148 0.489014 15.511 3.85202 15.511 8Z"
      fill="currentColor"
    />
    <path
      d="M10.5617 8.42578C10.852 8.21614 10.852 7.78386 10.5617 7.57422L7.25708 5.18751C6.90974 4.93666 6.42436 5.18484 6.42436 5.61329V10.3867C6.42436 10.8152 6.90974 11.0633 7.25708 10.8125L10.5617 8.42578Z"
      fill="currentColor"
    />
  </svg>
